<svg width="1200" height="720" viewBox="0 0 1200 720" fill="none" xmlns="http://www.w3.org/2000/svg">
  <rect width="1200" height="720" rx="28" fill="#0B0C0E"/>
  <rect x="24" y="24" width="1152" height="672" rx="24" stroke="rgba(232,160,32,0.24)" stroke-width="2"/>
  <text x="48" y="74" fill="#F0EAD8" font-family="Inter, Arial, sans-serif" font-size="34" font-weight="700">Software Architecture Map</text>
  <text x="48" y="108" fill="#958B7C" font-family="Inter, Arial, sans-serif" font-size="18">Từ yêu cầu đến domain, service, data và event flow</text>

  <rect x="48" y="150" width="180" height="252" rx="18" fill="#141414" stroke="#7D6132"/>
  <text x="74" y="196" fill="#E8A020" font-family="Inter, Arial, sans-serif" font-size="24" font-weight="700">Clients</text>
  <rect x="74" y="220" width="128" height="44" rx="12" fill="#1B1A18" stroke="#6C5630"/>
  <rect x="74" y="278" width="128" height="44" rx="12" fill="#1B1A18" stroke="#6C5630"/>
  <rect x="74" y="336" width="128" height="44" rx="12" fill="#1B1A18" stroke="#6C5630"/>
  <text x="113" y="248" fill="#F0EAD8" font-family="Inter, Arial, sans-serif" font-size="18">Web</text>
  <text x="106" y="306" fill="#F0EAD8" font-family="Inter, Arial, sans-serif" font-size="18">Mobile</text>
  <text x="98" y="364" fill="#F0EAD8" font-family="Inter, Arial, sans-serif" font-size="18">Admin</text>

  <rect x="284" y="214" width="170" height="92" rx="18" fill="#231712" stroke="#B5792A"/>
  <text x="319" y="267" fill="#F5DFC0" font-family="Inter, Arial, sans-serif" font-size="18" font-weight="700">API Gateway</text>

  <rect x="516" y="150" width="422" height="264" rx="20" fill="#141614" stroke="#8E6B30"/>
  <text x="548" y="196" fill="#F0EAD8" font-family="Inter, Arial, sans-serif" font-size="26" font-weight="700">Application Layer</text>
  <rect x="548" y="228" width="102" height="60" rx="14" fill="#1D1E1A" stroke="#A57A35"/>
  <rect x="668" y="228" width="102" height="60" rx="14" fill="#1D1E1A" stroke="#A57A35"/>
  <rect x="788" y="228" width="118" height="60" rx="14" fill="#1D1E1A" stroke="#A57A35"/>
  <rect x="548" y="314" width="102" height="60" rx="14" fill="#1D1E1A" stroke="#A57A35"/>
  <rect x="668" y="314" width="102" height="60" rx="14" fill="#1D1E1A" stroke="#A57A35"/>
  <rect x="788" y="314" width="118" height="60" rx="14" fill="#1D1E1A" stroke="#A57A35"/>
  <text x="572" y="265" fill="#F0EAD8" font-family="Inter, Arial, sans-serif" font-size="18">User</text>
  <text x="697" y="265" fill="#F0EAD8" font-family="Inter, Arial, sans-serif" font-size="18">Order</text>
  <text x="820" y="265" fill="#F0EAD8" font-family="Inter, Arial, sans-serif" font-size="18">Payment</text>
  <text x="562" y="351" fill="#F0EAD8" font-family="Inter, Arial, sans-serif" font-size="18">Notify</text>
  <text x="694" y="351" fill="#F0EAD8" font-family="Inter, Arial, sans-serif" font-size="18">Catalog</text>
  <text x="824" y="351" fill="#F0EAD8" font-family="Inter, Arial, sans-serif" font-size="18">Report</text>

  <rect x="952" y="150" width="192" height="264" rx="20" fill="#2B2410" stroke="#E0A93B"/>
  <text x="976" y="196" fill="#FFE3A1" font-family="Inter, Arial, sans-serif" font-size="24" font-weight="700">Data Layer</text>
  <rect x="982" y="230" width="132" height="60" rx="14" fill="#403315" stroke="#F2C763"/>
  <rect x="982" y="316" width="132" height="60" rx="14" fill="#403315" stroke="#F2C763"/>
  <text x="1009" y="265" fill="#FFF4D3" font-family="Inter, Arial, sans-serif" font-size="17">Primary DB</text>
  <text x="1020" y="351" fill="#FFF4D3" font-family="Inter, Arial, sans-serif" font-size="18">Cache</text>

  <rect x="420" y="470" width="500" height="72" rx="18" fill="#201512" stroke="#BC7A35"/>
  <text x="615" y="514" fill="#F7E2C3" font-family="Inter, Arial, sans-serif" font-size="24" font-weight="700">Event Bus</text>

  <rect x="496" y="576" width="108" height="60" rx="14" fill="#1B1A18" stroke="#7A6238"/>
  <rect x="628" y="576" width="108" height="60" rx="14" fill="#1B1A18" stroke="#7A6238"/>
  <rect x="760" y="576" width="108" height="60" rx="14" fill="#1B1A18" stroke="#7A6238"/>
  <text x="524" y="612" fill="#F0EAD8" font-family="Inter, Arial, sans-serif" font-size="18">Email</text>
  <text x="654" y="612" fill="#F0EAD8" font-family="Inter, Arial, sans-serif" font-size="18">Audit</text>
  <text x="788" y="612" fill="#F0EAD8" font-family="Inter, Arial, sans-serif" font-size="18">Analytics</text>

  <path d="M228 260H284" stroke="#A57A35" stroke-width="3"/>
  <path d="M454 260H516" stroke="#B78943" stroke-width="3"/>
  <path d="M938 282H968" stroke="#C9B07D" stroke-width="3"/>
  <path d="M727 414V470" stroke="#A57A35" stroke-width="3"/>
  <path d="M548 542V576" stroke="#BC7A35" stroke-width="3"/>
  <path d="M680 542V576" stroke="#BC7A35" stroke-width="3"/>
  <path d="M812 542V576" stroke="#BC7A35" stroke-width="3"/>

  <text x="48" y="666" fill="#8D806F" font-family="Inter, Arial, sans-serif" font-size="16">Boundary • Dependency Direction • Event Flow • Persistence</text>
</svg>
