<svg width="1200" height="720" viewBox="0 0 1200 720" fill="none" xmlns="http://www.w3.org/2000/svg">
  <rect width="1200" height="720" rx="28" fill="#0B0C0E"/>
  <rect x="24" y="24" width="1152" height="672" rx="24" stroke="rgba(232,160,32,0.24)" stroke-width="2"/>
  <text x="48" y="76" fill="#F0EAD8" font-family="Inter, Arial, sans-serif" font-size="34" font-weight="700">Design Patterns Atlas</text>
  <text x="48" y="110" fill="#958B7C" font-family="Inter, Arial, sans-serif" font-size="18">Nhìn pattern theo nhóm vấn đề thay vì học rời rạc</text>

  <rect x="48" y="154" width="320" height="222" rx="20" fill="#171514" stroke="#9A7235"/>
  <text x="78" y="198" fill="#F0EAD8" font-family="Inter, Arial, sans-serif" font-size="26" font-weight="700">Creational</text>
  <text x="78" y="224" fill="#D2C6B5" font-family="Inter, Arial, sans-serif" font-size="16">
    <tspan x="78" dy="0">Tạo object thế nào</tspan>
    <tspan x="78" dy="22">cho gọn và linh hoạt</tspan>
  </text>
  <rect x="78" y="260" width="120" height="42" rx="12" fill="#211D1A"/><text x="102" y="287" fill="#F0EAD8" font-family="Inter, Arial, sans-serif" font-size="18">Factory</text>
  <rect x="214" y="260" width="120" height="42" rx="12" fill="#211D1A"/><text x="247" y="287" fill="#F0EAD8" font-family="Inter, Arial, sans-serif" font-size="18">Builder</text>
  <rect x="78" y="320" width="120" height="42" rx="12" fill="#211D1A"/><text x="98" y="347" fill="#F0EAD8" font-family="Inter, Arial, sans-serif" font-size="18">Singleton</text>

  <rect x="440" y="154" width="320" height="222" rx="20" fill="#181514" stroke="#B57D33"/>
  <text x="470" y="198" fill="#F0EAD8" font-family="Inter, Arial, sans-serif" font-size="26" font-weight="700">Structural</text>
  <text x="470" y="224" fill="#D6C9BA" font-family="Inter, Arial, sans-serif" font-size="16">
    <tspan x="470" dy="0">Ghép module thế nào</tspan>
    <tspan x="470" dy="22">cho sạch và ít phụ thuộc</tspan>
  </text>
  <rect x="470" y="260" width="120" height="42" rx="12" fill="#231A18"/><text x="505" y="287" fill="#F0EAD8" font-family="Inter, Arial, sans-serif" font-size="18">Adapter</text>
  <rect x="606" y="260" width="120" height="42" rx="12" fill="#231A18"/><text x="644" y="287" fill="#F0EAD8" font-family="Inter, Arial, sans-serif" font-size="18">Facade</text>
  <rect x="470" y="320" width="120" height="42" rx="12" fill="#231A18"/><text x="497" y="347" fill="#F0EAD8" font-family="Inter, Arial, sans-serif" font-size="18">Proxy</text>
  <rect x="606" y="320" width="120" height="42" rx="12" fill="#231A18"/><text x="627" y="347" fill="#F0EAD8" font-family="Inter, Arial, sans-serif" font-size="18">Decorator</text>

  <rect x="832" y="154" width="320" height="222" rx="20" fill="#141614" stroke="#9C7335"/>
  <text x="862" y="198" fill="#F0EAD8" font-family="Inter, Arial, sans-serif" font-size="26" font-weight="700">Behavioral</text>
  <text x="862" y="224" fill="#D4CABB" font-family="Inter, Arial, sans-serif" font-size="16">
    <tspan x="862" dy="0">Phối hợp hành vi giữa</tspan>
    <tspan x="862" dy="22">các object và flow</tspan>
  </text>
  <rect x="862" y="260" width="120" height="42" rx="12" fill="#1F1C1A"/><text x="898" y="287" fill="#F0EAD8" font-family="Inter, Arial, sans-serif" font-size="18">Strategy</text>
  <rect x="998" y="260" width="120" height="42" rx="12" fill="#1F1C1A"/><text x="1029" y="287" fill="#F0EAD8" font-family="Inter, Arial, sans-serif" font-size="18">Observer</text>
  <rect x="862" y="320" width="120" height="42" rx="12" fill="#1F1C1A"/><text x="901" y="347" fill="#F0EAD8" font-family="Inter, Arial, sans-serif" font-size="18">State</text>
  <rect x="998" y="320" width="120" height="42" rx="12" fill="#1F1C1A"/><text x="1028" y="347" fill="#F0EAD8" font-family="Inter, Arial, sans-serif" font-size="18">Command</text>

  <rect x="48" y="434" width="1104" height="208" rx="24" fill="#121211" stroke="#7C6032"/>
  <text x="78" y="482" fill="#F0EAD8" font-family="Inter, Arial, sans-serif" font-size="28" font-weight="700">Pattern Selection Cheat Path</text>
  <path d="M110 548H262" stroke="#B47F31" stroke-width="4"/>
  <path d="M352 548H504" stroke="#C18C3A" stroke-width="4"/>
  <path d="M594 548H746" stroke="#D29B42" stroke-width="4"/>
  <path d="M836 548H988" stroke="#E3AE56" stroke-width="4"/>
  <circle cx="94" cy="548" r="20" fill="#2B2215" stroke="#C18B39"/><text x="87" y="555" fill="#F8F2E4" font-family="Inter, Arial, sans-serif" font-size="16" font-weight="700">1</text>
  <circle cx="336" cy="548" r="20" fill="#302416" stroke="#C99544"/><text x="329" y="555" fill="#F8F2E4" font-family="Inter, Arial, sans-serif" font-size="16" font-weight="700">2</text>
  <circle cx="578" cy="548" r="20" fill="#352717" stroke="#D6A14A"/><text x="571" y="555" fill="#F8F2E4" font-family="Inter, Arial, sans-serif" font-size="16" font-weight="700">3</text>
  <circle cx="820" cy="548" r="20" fill="#3B2B18" stroke="#E1AE59"/><text x="813" y="555" fill="#FFF8E9" font-family="Inter, Arial, sans-serif" font-size="16" font-weight="700">4</text>
  <text x="78" y="594" fill="#E2D6C4" font-family="Inter, Arial, sans-serif" font-size="18">Object phức tạp?</text>
  <text x="307" y="594" fill="#E2D6C4" font-family="Inter, Arial, sans-serif" font-size="18">Tích hợp vendor?</text>
  <text x="552" y="594" fill="#E2D6C4" font-family="Inter, Arial, sans-serif" font-size="18">Nhiều biến thể hành vi?</text>
  <text x="782" y="594" fill="#E2D6C4" font-family="Inter, Arial, sans-serif" font-size="18">Flow nhiều bước?</text>
  <text x="80" y="624" fill="#9E8D74" font-family="Inter, Arial, sans-serif" font-size="16">Builder / Factory</text>
  <text x="308" y="624" fill="#9E8D74" font-family="Inter, Arial, sans-serif" font-size="16">Adapter / Facade</text>
  <text x="550" y="624" fill="#9E8D74" font-family="Inter, Arial, sans-serif" font-size="16">Strategy / State</text>
  <text x="782" y="624" fill="#9E8D74" font-family="Inter, Arial, sans-serif" font-size="16">Command / Observer</text>
</svg>
