<svg width="1200" height="720" viewBox="0 0 1200 720" fill="none" xmlns="http://www.w3.org/2000/svg">
  <rect width="1200" height="720" rx="28" fill="#0B1020"/>
  <rect x="24" y="24" width="1152" height="672" rx="24" stroke="#263657" stroke-width="2"/>
  <text x="48" y="76" fill="#F2F7FF" font-family="Inter, Arial, sans-serif" font-size="34" font-weight="700">Design Patterns Atlas</text>
  <text x="48" y="110" fill="#8EA4C4" font-family="Inter, Arial, sans-serif" font-size="18">Nhìn pattern theo nhóm vấn đề thay vì học rời rạc</text>

  <rect x="48" y="154" width="320" height="222" rx="20" fill="#131C32" stroke="#4F77FF"/>
  <text x="78" y="198" fill="#9AB5FF" font-family="Inter, Arial, sans-serif" font-size="26" font-weight="700">Creational</text>
  <text x="78" y="224" fill="#DDE7FF" font-family="Inter, Arial, sans-serif" font-size="16">
    <tspan x="78" dy="0">Tạo object thế nào</tspan>
    <tspan x="78" dy="22">cho gọn và linh hoạt</tspan>
  </text>
  <rect x="78" y="260" width="120" height="42" rx="12" fill="#1B2950"/><text x="102" y="287" fill="#F4F7FF" font-family="Inter, Arial, sans-serif" font-size="18">Factory</text>
  <rect x="214" y="260" width="120" height="42" rx="12" fill="#1B2950"/><text x="247" y="287" fill="#F4F7FF" font-family="Inter, Arial, sans-serif" font-size="18">Builder</text>
  <rect x="78" y="320" width="120" height="42" rx="12" fill="#1B2950"/><text x="98" y="347" fill="#F4F7FF" font-family="Inter, Arial, sans-serif" font-size="18">Singleton</text>

  <rect x="440" y="154" width="320" height="222" rx="20" fill="#15182A" stroke="#C975FF"/>
  <text x="470" y="198" fill="#E4B4FF" font-family="Inter, Arial, sans-serif" font-size="26" font-weight="700">Structural</text>
  <text x="470" y="224" fill="#F2E4FF" font-family="Inter, Arial, sans-serif" font-size="16">
    <tspan x="470" dy="0">Ghép module thế nào</tspan>
    <tspan x="470" dy="22">cho sạch và ít phụ thuộc</tspan>
  </text>
  <rect x="470" y="260" width="120" height="42" rx="12" fill="#2A1E44"/><text x="505" y="287" fill="#FFF5FF" font-family="Inter, Arial, sans-serif" font-size="18">Adapter</text>
  <rect x="606" y="260" width="120" height="42" rx="12" fill="#2A1E44"/><text x="644" y="287" fill="#FFF5FF" font-family="Inter, Arial, sans-serif" font-size="18">Facade</text>
  <rect x="470" y="320" width="120" height="42" rx="12" fill="#2A1E44"/><text x="497" y="347" fill="#FFF5FF" font-family="Inter, Arial, sans-serif" font-size="18">Proxy</text>
  <rect x="606" y="320" width="120" height="42" rx="12" fill="#2A1E44"/><text x="627" y="347" fill="#FFF5FF" font-family="Inter, Arial, sans-serif" font-size="18">Decorator</text>

  <rect x="832" y="154" width="320" height="222" rx="20" fill="#101F1D" stroke="#44D391"/>
  <text x="862" y="198" fill="#A7F1CB" font-family="Inter, Arial, sans-serif" font-size="26" font-weight="700">Behavioral</text>
  <text x="862" y="224" fill="#E2FFF1" font-family="Inter, Arial, sans-serif" font-size="16">
    <tspan x="862" dy="0">Phối hợp hành vi giữa</tspan>
    <tspan x="862" dy="22">các object và flow</tspan>
  </text>
  <rect x="862" y="260" width="120" height="42" rx="12" fill="#17362F"/><text x="898" y="287" fill="#F3FFF9" font-family="Inter, Arial, sans-serif" font-size="18">Strategy</text>
  <rect x="998" y="260" width="120" height="42" rx="12" fill="#17362F"/><text x="1029" y="287" fill="#F3FFF9" font-family="Inter, Arial, sans-serif" font-size="18">Observer</text>
  <rect x="862" y="320" width="120" height="42" rx="12" fill="#17362F"/><text x="901" y="347" fill="#F3FFF9" font-family="Inter, Arial, sans-serif" font-size="18">State</text>
  <rect x="998" y="320" width="120" height="42" rx="12" fill="#17362F"/><text x="1028" y="347" fill="#F3FFF9" font-family="Inter, Arial, sans-serif" font-size="18">Command</text>

  <rect x="48" y="434" width="1104" height="208" rx="24" fill="#0F172B" stroke="#314D77"/>
  <text x="78" y="482" fill="#EAF2FF" font-family="Inter, Arial, sans-serif" font-size="28" font-weight="700">Pattern Selection Cheat Path</text>
  <path d="M110 548H262" stroke="#4F77FF" stroke-width="4"/>
  <path d="M352 548H504" stroke="#C975FF" stroke-width="4"/>
  <path d="M594 548H746" stroke="#44D391" stroke-width="4"/>
  <path d="M836 548H988" stroke="#F3B74B" stroke-width="4"/>
  <circle cx="94" cy="548" r="20" fill="#163062" stroke="#6D96FF"/><text x="87" y="555" fill="#F8FBFF" font-family="Inter, Arial, sans-serif" font-size="16" font-weight="700">1</text>
  <circle cx="336" cy="548" r="20" fill="#341F56" stroke="#D69CFF"/><text x="329" y="555" fill="#FDF7FF" font-family="Inter, Arial, sans-serif" font-size="16" font-weight="700">2</text>
  <circle cx="578" cy="548" r="20" fill="#17382E" stroke="#82E2B2"/><text x="571" y="555" fill="#F2FFF7" font-family="Inter, Arial, sans-serif" font-size="16" font-weight="700">3</text>
  <circle cx="820" cy="548" r="20" fill="#4B3514" stroke="#FFD47A"/><text x="813" y="555" fill="#FFF8E9" font-family="Inter, Arial, sans-serif" font-size="16" font-weight="700">4</text>
  <text x="78" y="594" fill="#DDE7FF" font-family="Inter, Arial, sans-serif" font-size="18">Object phức tạp?</text>
  <text x="307" y="594" fill="#F5E6FF" font-family="Inter, Arial, sans-serif" font-size="18">Tích hợp vendor?</text>
  <text x="552" y="594" fill="#E6FFF1" font-family="Inter, Arial, sans-serif" font-size="18">Nhiều biến thể hành vi?</text>
  <text x="782" y="594" fill="#FFF4D7" font-family="Inter, Arial, sans-serif" font-size="18">Flow nhiều bước?</text>
  <text x="80" y="624" fill="#89A4C7" font-family="Inter, Arial, sans-serif" font-size="16">Builder / Factory</text>
  <text x="308" y="624" fill="#BFA3DD" font-family="Inter, Arial, sans-serif" font-size="16">Adapter / Facade</text>
  <text x="550" y="624" fill="#8FD0B0" font-family="Inter, Arial, sans-serif" font-size="16">Strategy / State</text>
  <text x="782" y="624" fill="#DABA79" font-family="Inter, Arial, sans-serif" font-size="16">Command / Observer</text>
</svg>
