<svg width="1200" height="720" viewBox="0 0 1200 720" fill="none" xmlns="http://www.w3.org/2000/svg">
  <rect width="1200" height="720" rx="28" fill="#0B0C0E"/>
  <rect x="24" y="24" width="1152" height="672" rx="24" stroke="rgba(232,160,32,0.24)" stroke-width="2"/>
  <text x="48" y="76" fill="#F0EAD8" font-family="Inter, Arial, sans-serif" font-size="34" font-weight="700">System Design Process</text>
  <text x="48" y="110" fill="#958B7C" font-family="Inter, Arial, sans-serif" font-size="18">Một flow học và trình bày system design rõ ràng, có tradeoff</text>

  <circle cx="120" cy="300" r="54" fill="#1F1B17" stroke="#B78131" stroke-width="3"/>
  <circle cx="316" cy="300" r="54" fill="#231D18" stroke="#C58B38" stroke-width="3"/>
  <circle cx="512" cy="300" r="54" fill="#2A2118" stroke="#D29A47" stroke-width="3"/>
  <circle cx="708" cy="300" r="54" fill="#302619" stroke="#DBA553" stroke-width="3"/>
  <circle cx="904" cy="300" r="54" fill="#35291A" stroke="#E1B15F" stroke-width="3"/>
  <circle cx="1080" cy="300" r="54" fill="#3B2D1B" stroke="#E7BC6C" stroke-width="3"/>
  <path d="M174 300H262" stroke="#B78131" stroke-width="4"/>
  <path d="M370 300H458" stroke="#C58B38" stroke-width="4"/>
  <path d="M566 300H654" stroke="#D29A47" stroke-width="4"/>
  <path d="M762 300H850" stroke="#DBA553" stroke-width="4"/>
  <path d="M958 300H1026" stroke="#E1B15F" stroke-width="4"/>

  <text x="120" y="307" text-anchor="middle" fill="#F0EAD8" font-family="Inter, Arial, sans-serif" font-size="18" font-weight="700">Req</text>
  <text x="316" y="307" text-anchor="middle" fill="#F0EAD8" font-family="Inter, Arial, sans-serif" font-size="18" font-weight="700">NFR</text>
  <text x="512" y="307" text-anchor="middle" fill="#F0EAD8" font-family="Inter, Arial, sans-serif" font-size="18" font-weight="700">Scale</text>
  <text x="708" y="307" text-anchor="middle" fill="#F0EAD8" font-family="Inter, Arial, sans-serif" font-size="18" font-weight="700">Flow</text>
  <text x="904" y="307" text-anchor="middle" fill="#F0EAD8" font-family="Inter, Arial, sans-serif" font-size="18" font-weight="700">Risk</text>
  <text x="1080" y="307" text-anchor="middle" fill="#F0EAD8" font-family="Inter, Arial, sans-serif" font-size="18" font-weight="700">ADR</text>

  <text x="120" y="384" text-anchor="middle" fill="#C6B59E" font-family="Inter, Arial, sans-serif" font-size="16">Hiểu bài toán</text>
  <text x="316" y="384" text-anchor="middle" fill="#C6B59E" font-family="Inter, Arial, sans-serif" font-size="16">Ràng buộc</text>
  <text x="512" y="384" text-anchor="middle" fill="#C6B59E" font-family="Inter, Arial, sans-serif" font-size="16">Ước lượng tải</text>
  <text x="708" y="384" text-anchor="middle" fill="#C6B59E" font-family="Inter, Arial, sans-serif" font-size="16">Data flow</text>
  <text x="904" y="384" text-anchor="middle" fill="#C6B59E" font-family="Inter, Arial, sans-serif" font-size="16">Failure mode</text>
  <text x="1080" y="384" text-anchor="middle" fill="#C6B59E" font-family="Inter, Arial, sans-serif" font-size="16">Quyết định</text>

  <rect x="78" y="472" width="1044" height="144" rx="22" fill="#121211" stroke="#7C6032"/>
  <text x="110" y="520" fill="#F0EAD8" font-family="Inter, Arial, sans-serif" font-size="28" font-weight="700">Key Review Axes</text>
  <rect x="110" y="548" width="130" height="42" rx="12" fill="#221C16"/><text x="175" y="575" text-anchor="middle" fill="#F0EAD8" font-family="Inter, Arial, sans-serif" font-size="18">Scalability</text>
  <rect x="256" y="548" width="124" height="42" rx="12" fill="#261E16"/><text x="318" y="575" text-anchor="middle" fill="#F0EAD8" font-family="Inter, Arial, sans-serif" font-size="18">Reliability</text>
  <rect x="396" y="548" width="132" height="42" rx="12" fill="#2C2217"/><text x="462" y="575" text-anchor="middle" fill="#F0EAD8" font-family="Inter, Arial, sans-serif" font-size="18">Consistency</text>
  <rect x="544" y="548" width="132" height="42" rx="12" fill="#332619"/><text x="610" y="575" text-anchor="middle" fill="#F0EAD8" font-family="Inter, Arial, sans-serif" font-size="18">Cost</text>
  <rect x="692" y="548" width="148" height="42" rx="12" fill="#392B1A"/><text x="766" y="575" text-anchor="middle" fill="#F0EAD8" font-family="Inter, Arial, sans-serif" font-size="18">Observability</text>
  <rect x="856" y="548" width="188" height="42" rx="12" fill="#40301B"/><text x="950" y="575" text-anchor="middle" fill="#F0EAD8" font-family="Inter, Arial, sans-serif" font-size="18">Cost of Change</text>
</svg>
